<svg xmlns="http://www.w3.org/2000/svg" width="39" height="39" fill="none"><g fill="#000"><path d="M0 0h3.00001v3H0zM0 3h3.00001v3H0zM0 6h3.00001v3H0zM0 9h3.00001v3H0zM0 12h3.00001v3H0zM0 15h3.00001v3H0zM0 18h3.00001v3H0zM0 21h3.00001v3H0zM0 24h3.00001v3H0zM0 27h3.00001v3H0zM0 30h3.00001v3H0zM0 33h3.00001v3H0zM0 36h3.00001v3H0zM33 0v3h-3.00001V0z"/><path d="M30.0032 0v3h-3.00001V0zM26.9998 0v3h-3.00001V0z"/><path d="M23.9998 0v3h-3.00001V0zM20.999 0v3h-3.00001V0z"/><path d="M17.9998 0v3h-3.00001V0zM14.999 0v3h-3.00001V0z"/><path d="M12 0v3H8.99999V0zM8.99609 0v3H5.99608V0z"/><path d="M6 0v3H2.99999V0zM36.0007 3v3h-3.00001V3zM8.99609 6v3H5.99608V6zM8.99609 3v3H5.99608V3zM8.99609 9v3H5.99608V9zM30.0032 6v3h-3.00001V6zM30.0032 3v3h-3.00001V3zM30.0032 9v3h-3.00001V9zM23.9998 6v3h-3.00001V6zM23.9998 3v3h-3.00001V3zM23.9998 9v3h-3.00001V9zM30.0032 12v3h-3.00001v-3zM26.9998 12v3h-3.00001v-3z"/><path d="M23.9998 12v3h-3.00001v-3zM20.999 12v3h-3.00001v-3z"/><path d="M17.9998 12v3h-3.00001v-3zM14.999 12v3h-3.00001v-3z"/><path d="M12 12v3H8.99999v-3zM8.99609 12v3H5.99608v-3zM33 21v3h-3.00001v-3z"/><path d="M30.0032 21v3h-3.00001v-3zM26.9998 21v3h-3.00001v-3z"/><path d="M23.9998 21v3h-3.00001v-3zM20.999 21v3h-3.00001v-3z"/><path d="M17.9998 21v3h-3.00001v-3zM14.999 21v3h-3.00001v-3z"/><path d="M12 21v3H8.99999v-3zM8.99609 21v3H5.99608v-3zM33 24v3h-3.00001v-3zM8.99609 24v3H5.99608v-3zM33 27v3h-3.00001v-3zM8.99609 27v3H5.99608v-3zM33 30v3h-3.00001v-3zM8.99609 30v3H5.99608v-3zM8.99609 33v3H5.99608v-3zM33 33v3h-3.00001v-3zM36.0007 36v3h-3.00001v-3zM33 36v3h-3.00001v-3z"/><path d="M30.0032 36v3h-3.00001v-3zM26.9998 36v3h-3.00001v-3z"/><path d="M23.9998 36v3h-3.00001v-3zM20.999 36v3h-3.00001v-3z"/><path d="M17.9998 36v3h-3.00001v-3zM14.999 36v3h-3.00001v-3z"/><path d="M12 36v3H8.99999v-3zM8.99609 36v3H5.99608v-3z"/><path d="M6 36v3H2.99999v-3zM39 39h-3.00001v-3H39zM39 36h-3.00001v-3H39zM39 33h-3.00001v-3H39zM39 30h-3.00001v-3H39zM39 27h-3.00001v-3H39zM39 24h-3.00001v-3H39zM39 21h-3.00001v-3H39zM39 18h-3.00001v-3H39zM39 15h-3.00001v-3H39zM39 12h-3.00001V9H39zM39 9h-3.00001V6H39z"/></g></svg>